<svg width="200" height="200" viewBox="0 0 200 200" fill="none" xmlns="http://www.w3.org/2000/svg">
<path d="M115 171.696C119.804 171.696 123.994 167.507 123.994 162.702V141.696H130C133.604 141.696 136.006 139.293 136.006 135.69V75.6941H63.9938V135.691C63.9938 139.294 66.3961 141.696 69.9995 141.696H76.0058V162.702C76.0058 167.507 80.1947 171.697 85.0002 171.697C89.8044 171.697 93.9938 167.507 93.9938 162.702V141.696H106.006V162.702C106.005 167.507 110.195 171.696 115 171.696ZM151.006 135.691C155.811 135.691 160 131.501 160 126.696V84.6847C160 79.9055 155.811 75.6941 151.006 75.6941C146.201 75.6941 142.012 79.9055 142.012 84.6847V126.696C142.012 131.501 146.201 135.691 151.006 135.691ZM48.9935 135.691C53.7986 135.691 57.988 131.501 57.988 126.696V84.6847C57.988 79.9055 53.7991 75.6941 48.9935 75.6941C44.1889 75.6941 40 79.9055 40 84.6847V126.696C40 131.501 44.1889 135.691 48.9935 135.691ZM128.798 28.9063C127.598 27.6979 125.81 27.6979 124.609 28.9063L116.554 36.9345L116.183 37.3057C111.406 34.9139 106.051 33.7195 100.088 33.708L100 33.707H99.9995L99.9113 33.708C93.9482 33.7195 88.5931 34.9139 83.8173 37.3057L83.4447 36.9345L75.3901 28.9063C74.1884 27.6979 72.4018 27.6979 71.2011 28.9063C69.9995 30.1079 69.9995 31.8912 71.2011 33.0918L78.993 40.8852C76.4824 42.5615 74.2057 44.6128 72.2258 46.959C67.486 52.5773 64.4627 59.8892 64.047 67.8116C64.0432 67.894 64.035 67.9755 64.0312 68.058C64.0059 68.5996 63.9935 69.1418 63.9938 69.684H136.006C136.006 69.1398 135.993 68.5975 135.968 68.058C135.965 67.9755 135.956 67.894 135.952 67.8116C135.537 59.8892 132.513 52.5768 127.773 46.9595C125.794 44.6133 123.516 42.562 121.006 40.8856L128.798 33.0923C130 31.8912 130 30.1079 128.798 28.9063ZM84.9887 59.1978C83.7955 59.1978 82.6511 58.7238 81.8073 57.88C80.9636 57.0363 80.4896 55.8919 80.4896 54.6986C80.4896 53.5054 80.9636 52.361 81.8073 51.5172C82.6511 50.6735 83.7955 50.1995 84.9887 50.1995C86.182 50.1995 87.3264 50.6735 88.1701 51.5172C89.0139 52.361 89.4879 53.5054 89.4879 54.6986C89.4879 55.8919 89.0139 57.0363 88.1701 57.88C87.3264 58.7238 86.182 59.1978 84.9887 59.1978ZM115.011 59.1978C113.818 59.1978 112.673 58.7238 111.829 57.88C110.986 57.0363 110.512 55.8919 110.512 54.6986C110.512 53.5054 110.986 52.361 111.829 51.5172C112.673 50.6735 113.818 50.1995 115.011 50.1995C116.204 50.1995 117.348 50.6735 118.192 51.5172C119.036 52.361 119.51 53.5054 119.51 54.6986C119.51 55.8919 119.036 57.0363 118.192 57.88C117.348 58.7238 116.204 59.1978 115.011 59.1978Z" fill="black"/>
</svg>
