<svg width="200" height="200" viewBox="0 0 200 200" fill="none" xmlns="http://www.w3.org/2000/svg">
<path d="M140.219 104.281C140.43 126.584 159.784 134.004 160 134.098C157.634 141.542 154.198 148.604 149.8 155.06C143.659 164.037 137.285 172.985 127.239 173.168C117.372 173.351 114.199 167.318 102.916 167.318C91.6332 167.318 88.1129 172.985 78.7755 173.351C69.0818 173.716 61.699 163.643 55.5022 154.699C42.846 136.418 33.1758 102.996 46.1648 80.445C52.6147 69.2466 64.1459 62.1638 76.6568 61.9763C86.177 61.7935 95.1629 68.3794 100.98 68.3794C106.797 68.3794 117.714 60.4576 129.194 61.6201C133.999 61.8217 147.475 63.5607 156.147 76.2403C155.448 76.6716 140.055 85.6153 140.21 104.281M121.675 49.5311C126.831 43.3015 130.286 34.6296 129.339 26C121.924 26.3 112.933 30.9453 107.632 37.1702C102.864 42.6827 98.6879 51.5092 99.8129 59.9654C108.082 60.6076 116.528 55.7467 121.675 49.5311Z" fill="black"/>
</svg>
