<svg width="200" height="200" viewBox="0 0 200 200" fill="none" xmlns="http://www.w3.org/2000/svg">
<path class="text-color" d="M65.1023 86.8067C64.9223 92.4691 67.7522 94.9765 67.8222 96.569C67.7889 96.8931 67.6785 97.2046 67.5001 97.4773C67.3218 97.75 67.0808 97.976 66.7972 98.1365L63.5973 100.376C63.1832 100.667 62.695 100.833 62.1898 100.856C62.0823 100.851 60.1423 101.314 57.0699 94.4541C55.1954 96.7939 52.8104 98.6739 50.0974 99.95C47.3844 101.226 44.4154 101.865 41.4177 101.816C37.3477 102.039 26.3179 99.5065 26.8854 87.7642C26.4879 78.1943 35.4003 72.2494 44.6176 72.7519C46.3926 72.7569 50.0175 72.8444 56.3649 74.3194V70.4144C57.0374 63.7996 52.69 58.6671 45.1626 59.4371C44.5626 59.4396 40.3127 59.3121 33.7028 61.9646C31.8628 62.8096 31.6278 62.6696 31.0153 62.6696C29.1629 62.6696 29.9253 57.2997 30.2803 56.6197C31.5828 55.0197 39.2452 52.0323 46.7651 52.0748C51.7931 51.6301 56.7942 53.1819 60.6873 56.3947C62.2699 58.1649 63.4772 60.2374 64.2365 62.4872C64.9957 64.737 65.2911 67.1173 65.1048 69.4845L65.1023 86.8067ZM43.4976 94.904C51.605 94.7865 55.0374 89.9116 55.8199 87.2867C56.4349 84.7742 56.3324 83.1842 56.3324 80.4368C53.9149 79.8568 50.435 79.2243 46.4426 79.2193C42.6551 78.9343 35.7377 80.6268 36.0077 87.2842C35.6977 91.4816 38.7877 95.134 43.4976 94.904ZM86.2269 100.666C84.2619 100.846 83.347 99.4515 83.057 98.074L70.6072 56.9122C70.3647 56.2172 70.2047 55.4997 70.1272 54.7672C70.0813 54.4652 70.1571 54.1574 70.338 53.9113C70.519 53.6652 70.7902 53.501 71.0922 53.4547C71.1522 53.4447 70.5597 53.4547 76.6546 53.4547C78.8495 53.2347 79.5645 54.9622 79.792 56.0472L88.7219 91.2541L97.0117 56.0472C97.1442 55.2422 97.7467 53.2797 100.212 53.4872H104.502C105.044 53.4422 107.279 53.3622 107.672 56.0797L116.026 91.7366L125.244 56.0797C125.364 55.5347 125.924 53.2372 128.414 53.4872H133.344C133.556 53.4547 134.881 53.2847 134.656 55.6322C134.549 56.0947 135.509 52.9672 121.469 98.1065C121.181 99.484 120.264 100.879 118.299 100.699H113.626C110.892 100.986 110.499 98.284 110.457 98.0115L102.167 63.7296L93.9718 97.9765C93.9318 98.249 93.5393 100.951 90.8018 100.664H86.2269V100.666ZM154.596 102.074C153.126 102.076 146.116 101.999 140.256 99.0015C139.672 98.7543 139.175 98.3394 138.828 97.8093C138.48 97.2792 138.298 96.6579 138.304 96.024V93.3366C138.304 91.2241 139.854 91.6116 140.511 91.8641C143.021 92.8791 144.631 93.6491 147.713 94.2641C156.876 96.1465 160.906 93.6891 161.893 93.1441C165.181 91.1916 165.441 86.7242 163.206 84.4067C160.586 82.2093 159.336 82.1268 149.923 79.1568C148.763 78.8343 138.999 75.7544 138.976 66.067C138.824 59.0071 145.238 52.0223 156.356 52.0798C159.523 52.0773 167.963 53.1122 170.248 55.9847C170.586 56.5072 170.753 57.1222 170.728 57.7447V60.2721C170.728 61.3821 170.323 61.9371 169.511 61.9371C167.583 61.7221 164.163 59.1446 157.221 59.2496C155.498 59.1596 147.248 59.4771 147.618 65.492C147.511 70.232 154.271 72.0094 155.043 72.2144C164.158 74.9569 167.206 75.4119 170.823 79.6093C175.108 85.1717 172.798 91.6841 171.911 93.4691C167.141 102.841 154.806 102.079 154.596 102.074ZM164.646 128.288C147.138 141.218 121.724 148.101 100.024 148.101C70.7448 148.294 42.4522 137.528 20.708 117.919C19.0755 116.446 20.5155 114.429 22.5005 115.551C46.6212 129.349 73.9309 136.599 101.719 136.581C122.471 136.47 142.996 132.26 162.116 124.194C165.061 122.944 167.558 126.144 164.646 128.288ZM171.943 119.966C169.703 117.086 157.123 118.621 151.491 119.294C149.793 119.486 149.506 118.014 151.043 116.926C161.061 109.884 177.513 111.901 179.403 114.269C181.29 116.636 178.89 133.121 169.513 140.996C168.073 142.213 166.696 141.571 167.336 139.971C169.446 134.658 174.183 122.849 171.943 119.966Z" fill="black"/>
</svg>
