<svg width="200" height="200" viewBox="0 0 200 200" fill="none" xmlns="http://www.w3.org/2000/svg">
<path fill-rule="evenodd" clip-rule="evenodd" d="M100.062 26C58.5547 26 25 59.802 25 101.62C25 135.047 46.4996 163.342 76.3253 173.357C80.0543 174.11 81.4202 171.73 81.4202 169.728C81.4202 167.975 81.2973 161.966 81.2973 155.705C60.4169 160.213 56.0687 146.69 56.0687 146.69C52.7131 137.926 47.7411 135.674 47.7411 135.674C40.9069 131.041 48.2389 131.041 48.2389 131.041C55.8198 131.542 59.7977 138.804 59.7977 138.804C66.5074 150.321 77.3194 147.067 81.6691 145.063C82.2899 140.18 84.2796 136.8 86.3922 134.922C69.7385 133.169 52.2168 126.659 52.2168 97.6127C52.2168 89.3496 55.1975 82.5892 59.9206 77.3315C59.1754 75.4539 56.565 67.6902 60.6673 57.2992C60.6673 57.2992 67.0052 55.2956 81.2958 65.0613C87.4141 63.4061 93.7238 62.564 100.062 62.5569C106.4 62.5569 112.861 63.4342 118.827 65.0613C133.119 55.2956 139.457 57.2992 139.457 57.2992C143.559 67.6902 140.947 75.4539 140.202 77.3315C145.05 82.5892 147.907 89.3496 147.907 97.6127C147.907 126.659 130.386 133.043 113.607 134.922C116.342 137.301 118.702 141.807 118.702 148.944C118.702 159.085 118.579 167.223 118.579 169.726C118.579 171.73 119.947 174.11 123.674 173.358C153.5 163.341 175 135.047 175 101.62C175.123 59.802 141.445 26 100.062 26Z" fill="black"/>
</svg>
