<svg width="200" height="200" viewBox="0 0 200 200" fill="none" xmlns="http://www.w3.org/2000/svg">
<path d="M57.7529 77.0542H87.9311V79.4415H60.5182V97.4067H86.2951V99.794H60.519V119.518H88.2448V121.905H57.7529V77.0542ZM90.6344 77.0542H93.8404L108.049 96.7785L122.572 77.0542L142.325 52L109.872 98.8513L126.596 121.905H123.263L108.049 100.924L92.7707 121.905H89.5019L106.35 98.8513L90.6344 77.0542ZM127.789 79.4415V77.0542H162.179V79.4415H146.336V121.905H143.57V79.4415H127.789ZM20 77.0542H23.4578L71.1394 148.062L51.4345 121.905L22.8916 80.4462L22.7661 121.905H20V77.0542ZM161.901 118.798C162.473 118.798 162.889 118.362 162.889 117.799C162.889 117.235 162.473 116.799 161.901 116.799C161.335 116.799 160.912 117.235 160.912 117.799C160.912 118.362 161.335 118.798 161.901 118.798ZM164.619 116.17C164.619 117.832 165.823 118.919 167.579 118.919C169.449 118.919 170.58 117.799 170.58 115.854V109.009H169.073V115.847C169.073 116.927 168.528 117.503 167.565 117.503C166.704 117.503 166.119 116.967 166.099 116.17H164.619ZM172.551 116.082C172.659 117.812 174.105 118.919 176.259 118.919C178.559 118.919 180 117.758 180 115.908C180 114.453 179.179 113.648 177.187 113.186L176.118 112.924C174.852 112.63 174.341 112.234 174.341 111.543C174.341 110.672 175.135 110.102 176.326 110.102C177.456 110.102 178.236 110.658 178.378 111.55H179.844C179.757 109.921 178.318 108.775 176.346 108.775C174.226 108.775 172.814 109.921 172.814 111.644C172.814 113.065 173.614 113.91 175.37 114.319L176.622 114.621C177.907 114.923 178.472 115.365 178.472 116.102C178.472 116.961 177.584 117.584 176.373 117.584C175.074 117.584 174.173 117.001 174.045 116.082H172.552H172.551Z" fill="black"/>
</svg>
