<svg width="200" height="200" viewBox="0 0 200 200" fill="none" xmlns="http://www.w3.org/2000/svg">
<path d="M98.9665 155.24C98.3725 155.24 97.7825 155.085 97.2616 154.785L91.8348 151.572C91.0243 151.119 91.4198 150.958 91.6871 150.866C92.7678 150.487 92.9872 150.402 94.1407 149.747C94.262 149.678 94.4207 149.702 94.5448 149.775L98.7139 152.249C98.8644 152.331 99.078 152.331 99.2176 152.249L115.473 142.866C115.624 142.781 115.721 142.606 115.721 142.427V123.669C115.721 123.482 115.624 123.315 115.47 123.221L99.2209 113.846C99.0703 113.757 98.8709 113.757 98.7204 113.846L82.4745 123.221C82.317 123.311 82.2169 123.486 82.2169 123.665V142.423C82.2169 142.602 82.3146 142.773 82.4692 142.858L86.9207 145.43C89.3377 146.638 90.8147 145.214 90.8147 143.782V125.268C90.8147 125.003 91.0222 124.8 91.2867 124.8H93.3456C93.602 124.8 93.8136 125.003 93.8136 125.268V143.79C93.8136 147.013 92.0558 148.864 89 148.864C88.06 148.864 87.3195 148.864 85.2524 147.847L80.9881 145.389C80.4697 145.087 80.0395 144.654 79.7404 144.133C79.4412 143.613 79.2836 143.023 79.2832 142.423V123.665C79.2832 122.444 79.9342 121.305 80.9881 120.702L97.26 111.315C98.2895 110.733 99.6566 110.733 100.678 111.315L116.93 120.707C117.448 121.008 117.878 121.44 118.177 121.96C118.476 122.48 118.634 123.069 118.634 123.669V142.427C118.634 143.643 117.979 144.779 116.93 145.389L100.678 154.776C100.157 155.076 99.5661 155.233 98.9649 155.232" fill="black"/>
<path d="M103.989 142.315C96.8761 142.315 95.3848 139.05 95.3848 136.312C95.3848 136.051 95.5947 135.844 95.8555 135.844H97.9551C98.1871 135.844 98.3824 136.012 98.419 136.242C98.7364 138.381 99.6804 139.46 103.981 139.46C107.407 139.46 108.864 138.686 108.864 136.869C108.864 135.824 108.449 135.046 103.127 134.526C98.6754 134.086 95.9247 133.106 95.9247 129.545C95.9247 126.266 98.6916 124.312 103.326 124.312C108.53 124.312 111.11 126.119 111.436 130.001C111.441 130.066 111.433 130.132 111.412 130.194C111.39 130.256 111.357 130.313 111.312 130.361C111.268 130.409 111.214 130.447 111.154 130.474C111.094 130.5 111.029 130.514 110.964 130.514H108.852C108.632 130.514 108.441 130.359 108.396 130.147C107.888 127.897 106.659 127.177 103.318 127.177C99.5787 127.177 99.1433 128.479 99.1433 129.456C99.1433 130.64 99.656 130.986 104.702 131.653C109.698 132.316 112.07 133.252 112.07 136.764C112.07 140.304 109.116 142.334 103.965 142.334M123.765 122.441H124.31C124.758 122.441 124.843 122.127 124.843 121.944C124.843 121.464 124.513 121.464 124.33 121.464H123.769L123.765 122.441ZM123.102 120.903H124.31C124.725 120.903 125.539 120.903 125.539 121.83C125.539 122.477 125.124 122.612 124.876 122.693C125.36 122.726 125.392 123.043 125.457 123.491C125.49 123.771 125.543 124.256 125.641 124.418H124.896C124.876 124.256 124.762 123.36 124.762 123.312C124.713 123.112 124.644 123.014 124.395 123.014H123.781V124.422H123.102V120.903ZM121.649 122.652C121.649 124.109 122.825 125.289 124.269 125.289C125.726 125.289 126.902 124.085 126.902 122.652C126.902 121.192 125.71 120.032 124.265 120.032C122.841 120.032 121.645 121.175 121.645 122.648M127.407 122.66C127.407 124.386 125.995 125.794 124.273 125.794C122.564 125.794 121.14 124.402 121.14 122.66C121.14 120.886 122.597 119.527 124.273 119.527C125.962 119.527 127.402 120.89 127.402 122.66" fill="black"/>
<path fill-rule="evenodd" clip-rule="evenodd" d="M48.6294 81.8447C48.6294 81.096 48.2347 80.4083 47.5885 80.036L30.3539 70.1199C30.0656 69.9519 29.7401 69.8582 29.4067 69.8472H29.2284C28.898 69.8594 28.5721 69.949 28.2763 70.1199L11.0425 80.036C10.7256 80.2204 10.4626 80.4846 10.2797 80.8023C10.0968 81.12 10.0003 81.4801 10 81.8467L10.0378 108.556C10.0378 108.926 10.2291 109.272 10.5546 109.455C10.872 109.65 11.2707 109.65 11.5881 109.455L21.8338 103.587C22.4808 103.202 22.8755 102.522 22.8755 101.781V89.3031C22.8748 88.9377 22.9705 88.5786 23.1531 88.2621C23.3356 87.9456 23.5985 87.6829 23.9151 87.5006L28.2771 84.9884C28.5935 84.8046 28.9529 84.708 29.3188 84.7084C29.6752 84.7084 30.039 84.8004 30.3539 84.988L34.7138 87.4993C35.3592 87.8696 35.7555 88.5573 35.7555 89.3019V101.779C35.7555 102.519 36.1555 103.203 36.7992 103.585L47.0384 109.449C47.1959 109.543 47.3759 109.592 47.5592 109.592C47.7426 109.592 47.9226 109.543 48.0801 109.449C48.2369 109.357 48.3669 109.225 48.4574 109.068C48.5479 108.91 48.5957 108.731 48.596 108.549L48.6294 81.8447ZM129.956 95.7508C129.956 95.9368 129.857 96.1089 129.695 96.2009L123.776 99.6131C123.696 99.6585 123.607 99.6824 123.516 99.6824C123.425 99.6824 123.335 99.6585 123.256 99.6131L117.336 96.2009C117.173 96.1085 117.075 95.9364 117.075 95.7508V88.9166C117.075 88.7302 117.173 88.5585 117.331 88.4649L123.248 85.047C123.411 84.9534 123.61 84.9534 123.773 85.047L129.693 88.4649C129.856 88.5585 129.953 88.7302 129.953 88.9166L129.956 95.7508ZM131.555 45.1318C131.396 45.0435 131.217 44.9981 131.036 45.0001C130.854 45.002 130.676 45.0512 130.519 45.1428C130.202 45.3299 130.006 45.6717 130.006 46.042V72.4904C130.006 72.6183 129.973 72.744 129.909 72.8548C129.845 72.9656 129.753 73.0576 129.642 73.1216C129.532 73.1855 129.406 73.2192 129.278 73.2191C129.15 73.219 129.025 73.1852 128.914 73.1211L124.597 70.6346C124.28 70.4519 123.922 70.3557 123.557 70.3557C123.191 70.3557 122.833 70.4519 122.517 70.6346L105.276 80.5845C104.96 80.7664 104.697 81.0284 104.514 81.3441C104.331 81.6598 104.235 82.0181 104.235 82.383V102.289C104.235 103.033 104.632 103.717 105.276 104.091L122.517 114.048C123.16 114.418 123.953 114.418 124.599 114.048L141.839 104.087C142.482 103.713 142.881 103.029 142.881 102.284V52.6753C142.88 52.3043 142.781 51.9403 142.592 51.6206C142.404 51.3009 142.134 51.0371 141.811 50.8564L131.555 45.1318ZM188.965 88.7367C189.28 88.5535 189.541 88.291 189.723 87.9752C189.904 87.6595 190 87.3016 190 86.9374V82.1132C190 81.371 189.605 80.6862 188.964 80.3127L171.833 70.3681C171.516 70.1842 171.156 70.0873 170.789 70.0873C170.423 70.0873 170.063 70.1842 169.746 70.3681L152.51 80.3168C151.863 80.6911 151.468 81.3747 151.468 82.1193V102.017C151.468 102.765 151.871 103.457 152.518 103.827L169.644 113.589C170.275 113.951 171.048 113.955 171.687 113.601L182.046 107.843C182.372 107.66 182.579 107.315 182.579 106.94C182.579 106.566 182.38 106.216 182.054 106.033L164.712 96.08C164.387 95.8969 164.188 95.5511 164.188 95.1808V88.9389C164.188 88.5662 164.383 88.2228 164.708 88.0373L170.104 84.9245C170.425 84.7373 170.82 84.7373 171.141 84.9245L176.541 88.0373C176.862 88.2204 177.062 88.5662 177.062 88.9365V93.8437C177.062 94.214 177.261 94.5599 177.583 94.747C177.904 94.9301 178.303 94.9301 178.624 94.743L188.965 88.7367Z" fill="black"/>
<path fill-rule="evenodd" clip-rule="evenodd" d="M170.537 87.806C170.597 87.7706 170.666 87.752 170.736 87.752C170.806 87.752 170.875 87.7706 170.936 87.806L174.244 89.7144C174.367 89.786 174.443 89.9178 174.443 90.0602V93.881C174.443 94.0234 174.367 94.1553 174.244 94.2269L170.936 96.1352C170.875 96.1706 170.806 96.1893 170.736 96.1893C170.666 96.1893 170.597 96.1706 170.537 96.1352L167.231 94.2269C167.169 94.1924 167.118 94.1422 167.082 94.0814C167.047 94.0207 167.028 93.9515 167.027 93.881V90.0602C167.027 89.9178 167.101 89.786 167.227 89.7144L170.537 87.806Z" fill="black"/>
<mask id="mask0_253_123" style="mask-type:luminance" maskUnits="userSpaceOnUse" x="57" y="70" width="39" height="44">
<path d="M75.3993 70.468L58.2567 80.3626C57.9417 80.5441 57.6802 80.8053 57.4983 81.1201C57.3164 81.4348 57.2207 81.7919 57.2207 82.1554V101.958C57.2207 102.698 57.6146 103.381 58.2567 103.751L75.4006 113.653C75.7155 113.835 76.0726 113.93 76.4361 113.93C76.7996 113.93 77.1567 113.835 77.4717 113.653L94.6127 103.751C94.9269 103.569 95.1877 103.308 95.3691 102.993C95.5505 102.678 95.646 102.321 95.6462 101.958V82.1554C95.6462 81.4164 95.2515 80.7328 94.6086 80.3626L77.47 70.468C77.1543 70.2868 76.7965 70.1914 76.4324 70.1914C76.0684 70.1914 75.7106 70.2868 75.3949 70.468" fill="white"/>
</mask>
<g mask="url(#mask0_253_123)">
<path d="M112.969 78.6833L64.6644 55.0059L39.8965 105.532L88.2003 129.211L112.969 78.6833Z" fill="url(#paint0_linear_253_123)"/>
</g>
<mask id="mask1_253_123" style="mask-type:luminance" maskUnits="userSpaceOnUse" x="57" y="70" width="39" height="44">
<path d="M57.6445 103.216C57.8085 103.429 58.0136 103.613 58.2549 103.751L72.9602 112.245L75.4098 113.653C75.776 113.865 76.1934 113.954 76.6036 113.924C76.7403 113.913 76.877 113.887 77.0105 113.849L95.0907 80.7439C94.9523 80.5934 94.7904 80.4672 94.6089 80.3614L83.3842 73.8795L77.4508 70.4657C77.2822 70.37 77.1015 70.2975 76.9137 70.25L57.6445 103.216Z" fill="white"/>
</mask>
<g mask="url(#mask1_253_123)">
<path d="M36.7598 85.6856L70.8681 131.85L115.977 98.5221L81.8666 52.3594L36.7598 85.6856Z" fill="url(#paint1_linear_253_123)"/>
</g>
<mask id="mask2_253_123" style="mask-type:luminance" maskUnits="userSpaceOnUse" x="58" y="70" width="38" height="44">
<path d="M76.2266 70.203C75.935 70.2325 75.6529 70.3229 75.3985 70.4683L58.3047 80.3344L76.7372 113.908C76.9936 113.871 77.2458 113.786 77.4737 113.654L94.6164 103.751C94.8752 103.602 95.0986 103.398 95.2714 103.154C95.4441 102.91 95.5621 102.631 95.6173 102.337L76.8267 70.2368C76.6887 70.2093 76.5484 70.1954 76.4076 70.1953C76.3507 70.1953 76.2937 70.1982 76.2367 70.2034" fill="white"/>
</mask>
<g mask="url(#mask2_253_123)">
<path d="M58.3047 70.1953V113.908H95.6104V70.1953H58.3047Z" fill="url(#paint2_linear_253_123)"/>
</g>
<defs>
<linearGradient id="paint0_linear_253_123" x1="88.8024" y1="66.8074" x2="64.0362" y2="117.33" gradientUnits="userSpaceOnUse">
<stop offset="0.3"/>
<stop offset="0.5"/>
<stop offset="0.8"/>
</linearGradient>
<linearGradient id="paint1_linear_253_123" x1="54.0183" y1="109.032" x2="99.1289" y2="75.7008" gradientUnits="userSpaceOnUse">
<stop offset="0.57"/>
<stop offset="0.72"/>
<stop offset="1"/>
</linearGradient>
<linearGradient id="paint2_linear_253_123" x1="58.3173" y1="92.0531" x2="95.6175" y2="92.0531" gradientUnits="userSpaceOnUse">
<stop offset="0.16"/>
<stop offset="0.38"/>
<stop offset="0.47"/>
<stop offset="0.7"/>
<stop offset="0.9"/>
</linearGradient>
</defs>
</svg>
