<svg width="200" height="200" viewBox="0 0 200 200" fill="none" xmlns="http://www.w3.org/2000/svg">
<path d="M159.21 138.4L109.376 32.5711C108.114 29.9178 105.5 28.1696 102.566 28.0178C99.6248 27.8207 96.8185 29.2755 95.2846 31.7923L41.2343 119.335C39.5564 122.034 39.5917 125.46 41.3249 128.124L67.7505 169.046C69.8037 172.201 73.6876 173.629 77.2956 172.556L153.982 149.873C156.319 149.19 158.244 147.527 159.26 145.316C160.263 143.115 160.246 140.584 159.213 138.397L159.21 138.4ZM148.052 142.939L82.9792 162.182C80.9941 162.772 79.0887 161.051 79.5017 159.048L102.75 47.7274C103.185 45.6445 106.061 45.3148 106.971 47.242L150.009 138.636C150.394 139.46 150.398 140.412 150.021 141.24C149.644 142.067 148.923 142.689 148.049 142.939H148.052Z" fill="black"/>
</svg>
