<svg width="200" height="200" viewBox="0 0 200 200" fill="none" xmlns="http://www.w3.org/2000/svg">
<path class="text-color" d="M148.331 76.4754C146.733 75.9295 145.124 75.4212 143.503 74.9504C143.772 73.8566 144.02 72.7566 144.247 71.6504C147.903 53.8691 145.513 39.5441 137.353 34.8285C129.541 30.3035 116.728 35.0191 103.803 46.2941C102.532 47.4066 101.288 48.5524 100.069 49.7316C99.2563 48.9483 98.4229 48.1816 97.5688 47.4316C84.0219 35.3754 70.4438 30.2972 62.2938 35.0285C54.4813 39.5629 52.1594 53.0285 55.45 69.8816C55.7792 71.5483 56.149 73.2077 56.5594 74.8597C54.6375 75.4066 52.7813 75.991 51.0063 76.6097C35.1438 82.1566 25 90.8535 25 99.8722C25 109.191 35.8875 118.535 52.4281 124.2C53.7698 124.657 55.124 125.081 56.4906 125.472C56.0469 127.241 55.6542 129.03 55.3125 130.838C52.1875 147.4 54.625 160.547 62.4219 165.053C70.475 169.707 83.9844 164.925 97.1531 153.394C98.1948 152.482 99.2365 151.518 100.278 150.503C101.595 151.776 102.949 153.012 104.341 154.21C117.091 165.203 129.681 169.644 137.466 165.125C145.513 160.457 148.128 146.332 144.731 129.147C144.471 127.835 144.171 126.495 143.831 125.128C144.781 124.847 145.711 124.557 146.622 124.257C163.809 118.547 175.006 109.316 175.006 99.8816C175 90.8191 164.531 82.066 148.331 76.4754ZM108.019 51.1379C119.091 41.4785 129.441 37.666 134.159 40.391C139.181 43.2941 141.134 55.0004 137.978 70.3535C137.77 71.3535 137.545 72.3504 137.303 73.3441C130.696 71.8412 123.995 70.7805 117.247 70.1691C113.383 64.6031 109.147 59.3046 104.569 54.3097C105.69 53.2222 106.838 52.1649 108.013 51.1379H108.019ZM69.2906 107.578C70.6469 110.203 72.0646 112.796 73.5438 115.357C75.05 117.969 76.6198 120.543 78.2531 123.078C73.6096 122.574 68.9952 121.83 64.4281 120.85C65.7531 116.563 67.3844 112.11 69.2906 107.578ZM69.2906 92.4754C67.4156 88.041 65.8281 83.6785 64.525 79.466C68.8063 78.5066 73.3688 77.7222 78.125 77.1285C76.5313 79.616 74.9979 82.1399 73.525 84.7004C72.0521 87.2608 70.6375 89.8524 69.2813 92.4754H69.2906ZM72.6969 100.028C74.6719 95.9097 76.799 91.8701 79.0781 87.9097C81.3552 83.9514 83.7792 80.0837 86.35 76.3066C90.8125 75.9691 95.3875 75.791 100.009 75.791C104.631 75.791 109.234 75.9691 113.694 76.3097C116.238 80.0785 118.647 83.9327 120.922 87.8722C123.197 91.8118 125.352 95.8326 127.388 99.9347C125.379 104.068 123.229 108.124 120.938 112.103C118.665 116.062 116.269 119.941 113.75 123.741C109.297 124.053 104.688 124.225 100 124.225C95.3125 124.225 90.7906 124.078 86.4188 123.794C83.8292 120.005 81.3854 116.12 79.0875 112.141C76.7896 108.162 74.6563 104.124 72.6875 100.028H72.6969ZM126.484 115.313C127.995 112.692 129.445 110.037 130.834 107.347C132.739 111.666 134.421 116.08 135.872 120.572C131.251 121.613 126.579 122.411 121.875 122.963C123.463 120.444 124.999 117.894 126.484 115.313ZM130.772 92.4785C129.389 89.8431 127.95 87.2389 126.456 84.666C124.998 82.1285 123.478 79.6222 121.897 77.1472C126.681 77.7535 131.272 78.5597 135.575 79.5441C134.191 83.9332 132.588 88.2501 130.772 92.4785ZM100.072 58.9004C103.192 62.31 106.139 65.875 108.9 69.5816C102.994 69.3004 97.0833 69.3004 91.1688 69.5816C94.0844 65.7254 97.0688 62.1472 100.072 58.9004ZM65.5188 40.5816C70.5375 37.6691 81.6344 41.8316 93.3313 52.2285C94.0781 52.8941 94.8313 53.591 95.5813 54.3129C90.9793 59.307 86.7136 64.6009 82.8125 70.1597C76.0789 70.7664 69.3919 71.8103 62.7938 73.2847C62.4125 71.7514 62.0688 70.2077 61.7625 68.6535C58.9344 54.2066 60.8063 43.316 65.5188 40.5816ZM58.2031 119.285C56.9531 118.928 55.7188 118.542 54.5 118.125C47.1875 115.625 41.1469 112.363 37 108.81C33.2875 105.625 31.4063 102.447 31.4063 99.8722C31.4063 94.4004 39.55 87.4191 53.1313 82.6847C54.8375 82.091 56.5583 81.5483 58.2938 81.0566C60.3108 87.5388 62.7536 93.8807 65.6063 100.041C62.7196 106.286 60.2466 112.715 58.2031 119.285ZM92.9313 148.557C87.1094 153.657 81.2781 157.272 76.1375 159.094C71.5188 160.728 67.8406 160.775 65.6188 159.491C60.8875 156.757 58.9188 146.197 61.6031 132.035C61.9219 130.368 62.2865 128.701 62.6969 127.035C69.3611 128.47 76.1152 129.451 82.9125 129.969C86.8517 135.557 91.1526 140.881 95.7875 145.907C94.8563 146.822 93.9031 147.703 92.9313 148.557ZM100.25 141.3C97.2125 138.016 94.1813 134.382 91.225 130.475C94.0979 130.588 97.0229 130.644 100 130.644C103.056 130.644 106.081 130.578 109.063 130.444C106.311 134.21 103.37 137.834 100.25 141.3ZM139.163 150.235C138.269 155.06 136.472 158.278 134.25 159.566C129.522 162.31 119.413 158.744 108.513 149.341C107.263 148.266 106.013 147.113 104.741 145.903C109.285 140.858 113.485 135.513 117.313 129.903C124.147 129.324 130.934 128.275 137.625 126.763C137.931 128 138.202 129.213 138.438 130.4C139.941 137.994 140.156 144.863 139.163 150.235ZM144.6 118.16C143.781 118.432 142.938 118.694 142.081 118.95C139.983 112.438 137.445 106.075 134.484 99.9066C137.334 93.8204 139.773 87.5501 141.784 81.1379C143.319 81.5847 144.809 82.0535 146.244 82.5504C160.125 87.3379 168.594 94.4254 168.594 99.8722C168.594 105.685 159.447 113.228 144.6 118.16Z" fill="black"/>
<path class="text-color" d="M99.9992 113.297C102.659 113.305 105.261 112.525 107.477 111.053C109.692 109.582 111.421 107.487 112.445 105.032C113.469 102.577 113.741 99.8742 113.228 97.2647C112.714 94.6552 111.438 92.2568 109.56 90.3731C107.683 88.4895 105.288 87.2053 102.681 86.6833C100.073 86.1613 97.3688 86.4248 94.9108 87.4405C92.4529 88.4563 90.3517 90.1786 88.8732 92.3893C87.3947 94.6 86.6055 97.1998 86.6055 99.8593C86.6018 101.621 86.9454 103.367 87.6167 104.996C88.2879 106.625 89.2736 108.106 90.5175 109.354C91.7614 110.602 93.2391 111.592 94.866 112.269C96.4929 112.945 98.2373 113.295 99.9992 113.297Z" fill="black"/>
</svg>
