<svg width="200" height="200" viewBox="0 0 200 200" fill="none" xmlns="http://www.w3.org/2000/svg">
<path class="text-color" d="M107.411 30.0183C106.885 30.1118 106.394 30.3413 105.984 30.6838L78.0301 40.9527C77.6473 41.0721 77.2918 41.266 76.9842 41.5232L49.4102 67.2906C49.189 67.4838 48.9968 67.708 48.8398 67.9562L30.7741 98.9531C30.6647 99.1026 30.5692 99.2617 30.4888 99.4285L30.3937 99.6187C30.3613 99.6497 30.3296 99.6814 30.2986 99.7138C30.2967 99.7772 30.2967 99.8406 30.2986 99.904C30.2647 99.9662 30.233 100.03 30.2036 100.094C30.1712 100.125 30.1395 100.157 30.1085 100.189C30.108 100.221 30.108 100.253 30.1085 100.284C30.0746 100.347 30.0429 100.41 30.0134 100.474C30.0129 100.506 30.0129 100.538 30.0134 100.57C30.0114 100.633 30.0114 100.696 30.0134 100.76C30.0129 100.791 30.0129 100.823 30.0134 100.855C30.0114 100.918 30.0114 100.982 30.0134 101.045C30.0129 101.077 30.0129 101.108 30.0134 101.14C29.9955 101.33 29.9955 101.521 30.0134 101.711V139.363C30.0055 139.49 30.0055 139.617 30.0134 139.744V139.839C30.0044 140.127 30.0364 140.415 30.1085 140.694C30.7264 153.943 36.1377 161.702 42.6594 165.511C48.8587 169.132 55.5251 169.48 59.6792 169.599C60.003 169.609 60.4348 169.591 60.7251 169.599H61.0103C61.1711 169.58 61.33 169.549 61.4857 169.504H61.5808L159.04 162.849C159.262 162.873 159.485 162.873 159.706 162.849C160.036 162.806 160.358 162.71 160.657 162.563C160.861 162.458 161.052 162.331 161.227 162.183C161.259 162.184 161.291 162.184 161.322 162.183C161.779 161.834 162.128 161.363 162.33 160.825C162.531 160.287 162.578 159.704 162.463 159.14L169.69 64.0578C169.696 63.9957 169.683 63.9298 169.69 63.8677L169.975 60.2545C170.028 59.8403 169.996 59.4196 169.88 59.0184C169.88 55.9274 169.6 52.8655 168.834 49.8905C166.49 40.7856 159.441 32.927 146.299 30.5887C146.113 30.539 145.922 30.5072 145.729 30.4937C145.666 30.4917 145.602 30.4917 145.539 30.4937L108.361 30.0183C108.14 29.9939 107.917 29.9939 107.696 30.0183C107.601 30.0138 107.506 30.0138 107.411 30.0183ZM118.155 36.1986L134.034 36.3888L125.286 41.238L118.155 36.1986ZM107.886 36.4839L121.768 46.2774L111.88 77.7497L74.5121 112.55L43.9905 119.396L36.479 101.33L53.8791 71.3792L80.6924 46.4675L107.886 36.4839ZM145.919 36.7691C156.645 38.8953 161.114 44.324 162.939 51.4118C164.473 57.3711 163.558 64.5022 161.893 71.0939L130.421 45.3265L145.919 36.7691ZM126.903 50.2708L155.617 73.8513L118.725 76.3235L126.903 50.2708ZM159.231 79.6514C152.878 96.8412 141.8 111.447 129.185 125.196L118.345 82.3137L159.231 79.6514ZM112.83 85.1662L123.384 127.288L81.9285 113.881L112.83 85.1662ZM161.513 90.5859L156.758 153.34L132.132 131.376C143.614 119.081 154.228 105.882 161.513 90.5859ZM36.0987 116.448L38.8561 122.819L36.0987 127.858V116.448ZM78.2203 119.111L121.483 132.993C105.356 147.508 87.5787 158.957 65.194 162.373L78.2203 119.111ZM71.7547 119.396L60.2497 157.619L46.3676 125.101L71.7547 119.396ZM41.8036 129.95L55.9709 163.134C52.6166 162.807 48.983 162.103 45.702 160.186C40.8183 157.334 36.6892 152.075 36.1938 140.219L41.8036 129.95ZM127.663 135.655L152.099 157.334L90.8663 161.422C104.678 155.099 116.622 145.817 127.663 135.655Z" fill="black"/>
</svg>
