<svg width="200" height="200" viewBox="0 0 200 200" fill="none" xmlns="http://www.w3.org/2000/svg">
<path d="M149.208 54.7706C149.208 53.8393 148.276 53.8393 147.345 53.8393C146.414 53.8393 135.278 52.9081 135.278 52.9081C135.278 52.9081 127.848 45.4977 126.917 44.5664C126.917 44.5664 126.917 44.5664 125.986 44.5664L120.418 174.585L164.999 165.292C164.999 164.381 149.208 55.7018 149.208 54.7706Z" fill="black"/>
<path d="M124.143 43.6344C124.143 43.6344 122.28 43.6344 119.506 44.5656C116.712 37.1354 112.076 30.6364 103.715 30.6364H102.783C100.921 26.9114 98.1468 26 95.3531 26C75.8562 26 66.5635 50.1531 63.7698 62.2198C56.3395 64.0823 51.7031 65.9448 50.7719 65.9448C46.1354 67.8073 46.1354 67.8073 46.1354 71.5125C46.1354 74.3062 35 158.812 35 158.812L118.595 174.604L124.143 43.6344ZM102.783 49.2021C98.1468 51.9958 92.5593 52.9271 87.9229 54.7698C90.7166 43.6145 96.2843 38.0468 100.921 36.1843C101.852 39.9093 102.783 43.6344 102.783 49.2021ZM94.4218 31.5677C95.3531 31.5677 96.2843 31.5677 97.2156 32.499C91.6479 35.2927 84.2177 41.7917 81.4239 56.6521C77.6989 57.5833 73.9937 59.4458 70.2687 60.3771C73.0625 49.2021 81.4041 31.5677 94.4218 31.5677ZM98.127 95.6458C98.127 95.6458 92.5593 92.852 86.9916 92.852C77.6989 92.852 77.6989 98.4197 77.6989 100.282C77.6989 107.712 98.127 110.506 98.127 129.072C98.127 143.001 88.8343 152.294 76.7677 152.294C61.9073 152.294 54.477 143.001 54.477 143.001L58.2021 130.003C58.2021 130.003 65.6323 136.502 72.1312 136.502C76.7677 136.502 77.6989 132.777 77.6989 130.934C77.6989 120.71 60.976 120.71 60.976 104.007C60.976 90.0781 70.2687 77.0802 90.6968 77.0802C98.127 77.0802 101.832 78.9427 101.832 78.9427L98.127 95.6458ZM107.42 48.2708V47.3396C107.42 42.7031 106.488 38.9781 105.557 36.1843C110.194 36.1843 112.987 41.752 114.85 47.3396C112.056 47.3396 110.213 48.2708 107.42 48.2708Z" fill="black"/>
</svg>
