<svg width="200" height="200" viewBox="0 0 200 200" fill="none" xmlns="http://www.w3.org/2000/svg">
<path fill-rule="evenodd" clip-rule="evenodd" d="M100 55C79.9975 55 67.5025 64.9375 62.5 84.82C70 74.8825 78.7525 71.155 88.75 73.6375C94.4575 75.055 98.5375 79.1725 103.045 83.725C110.403 91.1425 118.915 99.73 137.5 99.73C157.503 99.73 169.998 89.7925 175 69.91C167.5 79.8475 158.755 83.575 148.75 81.0925C143.043 79.675 138.963 75.5575 134.448 71.005C127.098 63.58 118.593 55 100 55ZM62.5 99.73C42.4975 99.73 30.0025 109.668 25 129.55C32.5 119.605 41.2525 115.885 51.25 118.367C56.9575 119.785 61.0375 123.903 65.5525 128.455C72.9025 135.872 81.415 144.46 100.008 144.46C120.01 144.46 132.505 134.522 137.507 114.64C130.007 124.577 121.255 128.305 111.258 125.823C105.55 124.405 101.47 120.287 96.9625 115.735C89.5975 108.317 81.085 99.73 62.5 99.73Z" fill="black"/>
</svg>
