<svg width="200" height="200" viewBox="0 0 200 200" fill="none" xmlns="http://www.w3.org/2000/svg">
<path class="text-color" d="M25 100V175H175V25H25" fill="black"/>
<path class="bg-color" d="M58.1705 100.498L58.123 106.64H77.6465V162.117H91.457L91.4564 134.378V106.64H110.98V100.617C110.98 97.2827 110.908 94.4972 110.813 94.4257C110.742 94.3308 98.8603 94.2827 84.4562 94.3068L58.2414 94.3782L58.1705 100.497V100.498ZM146.035 94.2036C149.844 95.1564 152.75 96.8462 155.416 99.6083C156.797 101.085 158.844 103.776 159.012 104.419C159.058 104.609 152.535 108.989 148.583 111.442C148.44 111.537 147.868 110.918 147.225 109.965C145.297 107.156 143.273 105.942 140.178 105.728C135.631 105.417 132.701 107.799 132.726 111.775C132.726 112.942 132.892 113.632 133.369 114.585C134.369 116.656 136.226 117.894 142.059 120.418C152.797 125.037 157.392 128.085 160.25 132.418C163.44 137.252 164.154 144.966 161.987 150.704C159.607 156.942 153.702 161.18 145.392 162.585C142.821 163.037 136.726 162.966 133.964 162.466C127.94 161.394 122.226 158.418 118.702 154.514C117.321 152.99 114.63 149.013 114.797 148.727C114.869 148.633 115.487 148.252 116.178 147.847C118.037 146.778 119.895 145.706 121.75 144.629L126.059 142.13L126.964 143.463C128.226 145.391 130.987 148.035 132.654 148.916C137.44 151.44 144.012 151.082 147.25 148.177C148.63 146.916 149.202 145.606 149.202 143.677C149.204 141.939 148.99 141.178 148.085 139.869C146.919 138.202 144.538 136.797 137.775 133.869C130.037 130.535 126.704 128.463 123.657 125.177C121.895 123.273 120.228 120.225 119.537 117.677C118.966 115.559 118.823 110.249 119.276 108.106C120.871 100.63 126.514 95.4159 134.656 93.8679C137.299 93.3681 143.442 93.5585 146.038 94.2019" fill="white"/>
</svg>
