<svg width="117" height="491" viewBox="0 0 117 491" fill="none" xmlns="http://www.w3.org/2000/svg">
<path d="M48.0719 2.83938L0.19766 2.76722L5.10812 103.403L15.5135 490.112L42.0263 489.666L41.636 466.468L38.2512 450.729L48.6858 450.846L47.3777 396.268L44.9163 394.847L47.0377 393.446L46.4951 372.785L61.3046 372.146L58.6201 357.468L62.9949 356.712L61.3916 336.751L64.8023 330.844L64.6704 328.799L66.1473 329.651L67.7764 327.966L67.325 318.516L68.5529 327.758L70.6744 326.358L70.314 328.119L73.552 329.332L75.3131 329.692L85.0214 350.394L83.3161 353.348L88.2539 368.67L90.223 369.807L92.2683 369.675L91.6999 370.659L94.6536 372.365L98.2519 371.817L112.538 409.602L116.623 426.401L111.558 218.029L114.095 218.181L104.488 0.622822L67.9565 2.50487L63.402 91.1125L63.9063 231.213L52.7594 90.219L55.8654 89.3867L48.0719 2.83938Z" fill="#FCEB57"/>
</svg>
