<svg width="235" height="532" viewBox="0 0 235 532" fill="none" xmlns="http://www.w3.org/2000/svg">
<path fill-rule="evenodd" clip-rule="evenodd" d="M66.1267 0.716022L146.092 34.6266C163.609 42.9107 170.893 51.5862 179.757 73.6083L191.742 184.181C189.217 210.217 183.223 220.055 166.834 227.443L168.539 230.396C185.878 235.297 191.671 242.993 196.748 263.339L234.05 485.976L201.169 527.934L159.715 528.894L159.009 512.892L146.301 509.07L127.679 253.987C126.6 246.186 123.34 244.1 115.991 241.7L123.805 397.346L113.573 379.623L114.08 366.859C113.662 365.975 113.337 365.385 112.375 363.905L110.152 339.59L111.827 367.504C111.103 369.075 110.447 369.672 108.665 369.986L110.655 373.432L109.143 382.181L98.9216 398.585L98.806 451.818L96.3446 453.239L97.7657 455.701L98.2022 458.731L97.5781 461.06L94.1321 463.05L95.2132 468.333L95.4416 472.139L94.3252 474.753L95.8224 478.483L92.3764 480.473L41.4722 480.982L33.1387 477.916L0.166428 531.085L45.568 260.698L54.8016 117.527L66.1267 0.716022ZM113.624 63.3602L120.328 64.7405C122.47 67.2346 123.582 68.9082 125.16 73.1093L125.518 185.144L112.393 182.876L113.624 63.3602Z" fill="#FCEB57"/>
</svg>
