<svg width="241" height="492" viewBox="0 0 241 492" fill="none" xmlns="http://www.w3.org/2000/svg">
<path d="M83.543 0.317749L0.68042 440.019L16.3425 442.135L19.7885 440.145L33.0544 410.825L38.5959 388.591L32.8667 416.185L34.2878 418.646L40.6875 414.951L41.5198 411.845L40.0225 408.115L38.033 404.669L37.5964 401.639C37.5964 401.639 42.3112 399.574 42.5193 398.797C42.7274 398.02 39.9613 394.366 39.9613 394.366L39.6009 392.605L40.5855 392.037L40.5093 390.768L41.9862 389.915L42.3262 387.094L47.7413 383.967L48.8578 381.353L47.6448 378.115L53.608 371.391L57.3028 377.79L56.2068 384.987C56.2068 384.987 61.3228 393.848 60.9066 395.401C60.4905 396.954 54.8673 400.857 54.8673 400.857L54.6035 404.948L55.7404 406.917L54.8319 408.754L56.8215 412.2L54.5885 417.428L57.9788 418.752L60.821 423.675L63.6428 424.015C62.2962 443.549 63.1706 454.73 68.2421 475.183L95.3233 476.614L112.504 313.101L105.8 311.721L117.222 200.761L117.94 314.557L124.36 315.445L128.256 477.948L169.523 482.347L170.197 459.64L186.976 459.143L187.301 468.801L201.126 470.008L202.039 485.234L209.119 475.895L210.317 491.613L220.746 474.433L218.309 433.832L240.381 402.71L213.244 404.594L199.462 302.279L198.955 315.043L195.808 305.045L176.545 175.044L205.602 18.4587L157.347 12.1869L121.184 156.465L135.473 8.40641L89.2628 2.26649L83.543 0.317749Z" fill="#FCEB57"/>
</svg>
