<svg width="154" height="515" viewBox="0 0 154 515" fill="none" xmlns="http://www.w3.org/2000/svg">
<path fill-rule="evenodd" clip-rule="evenodd" d="M0.836197 35.4266C3.56939 24.5219 6.86268 20.059 16.2025 15.4157C41.165 7.76624 55.185 4.08723 80.2999 0.223247C96.1173 2.03354 101.442 6.57083 105.615 19.9533C123.568 140.907 138.072 279.974 146.789 363.555C149.353 388.141 151.417 407.926 152.92 421.036C159.533 478.715 129.792 500.759 129.792 500.759C104.41 509.896 90.6648 512.525 66.6855 514.452C56.6716 513.635 51.7207 512.609 43.7321 510.067L32.6535 496.505C27.2688 481.329 25.5414 472.307 26.1857 454.755L0.836197 35.4266ZM60.936 44.2259C60.8294 42.0044 61.4922 40.7378 63.6525 38.4804C66.7877 39.6887 67.8468 40.8011 68.1134 43.7951L92.2127 406.293C91.5129 410.46 90.6206 412.352 87.6624 414.489C84.7052 413.709 83.3315 412.075 81.1523 408.037L73.0381 242.849L74.9507 235.711L60.936 44.2259Z" fill="#FCEB57"/>
</svg>
