<svg width="166" height="471" viewBox="0 0 166 471" fill="none" xmlns="http://www.w3.org/2000/svg">
<path d="M3.8462 372.804L0.166031 449.118L11.2264 450.862L31.6315 458.93L31.6815 470.098L64.9885 458.231L67.429 447.573L69.0474 453.612L71.3908 453.573L71.0572 450.131L75.4603 457.779C86.4419 464.171 93.5606 466.299 108.024 467.297L119.849 465.306L122.641 442.783L118.443 422.722L122.111 427.624L123.209 427.33L123.973 423.594L126.288 430.036C134.406 438.416 140.147 441.862 152.341 446.006L165.117 443.171L161.124 410.697L141.307 404.826L111.812 389.189L100.095 389.386L96.5024 233.22L150.117 240.04L149.064 185.592L146.426 184.534L145.974 174.062L95.2804 160.574L96.7931 78.3679L148.222 94.6008L146.709 53.8116L143.12 53.5962L141.696 26.3184L106.427 19.8795L91.5515 12.6838L81.923 14.0868L45.839 0.215612L7.68972 371.774L3.8462 372.804Z" fill="#FCEB57"/>
</svg>
