<svg width="68" height="142" viewBox="0 0 68 142" fill="none" xmlns="http://www.w3.org/2000/svg">
<path d="M1.30463 140.931L1.22493 141.5H1.7998H20.3998H20.8346L20.895 141.069L28.1351 89.444C28.1116 90.283 28.0999 91.0663 28.0998 91.7939C28.0998 91.7959 28.0998 91.798 28.0998 91.8L26.9 140.988L26.8875 141.5H27.3998H46.3998H46.8984L46.8998 141.001L47.0996 67.8711L66.2803 1.13812L66.4638 0.5H65.7998H47.9998H47.6173L47.5172 0.869134L34.7174 48.0684C34.1842 50.0235 33.6249 52.1489 33.0394 54.4446L40.495 1.06917L40.5745 0.5H39.9998H21.3998H20.9649L20.9046 0.930676L1.30463 140.931Z" stroke="black"/>
</svg>
