<svg width="60" height="144" viewBox="0 0 60 144" fill="none" xmlns="http://www.w3.org/2000/svg">
<path d="M16.3053 19.5267L16.3048 19.5301L1.50528 124.327C1.5052 124.327 1.50511 124.328 1.50503 124.328C0.968476 127.951 0.813696 131.027 1.0521 133.547C1.29008 136.063 1.92352 138.064 2.99871 139.498C4.01718 140.88 5.64285 141.876 7.80551 142.529C9.9692 143.181 12.7058 143.5 15.9999 143.5H23.7999C30.3667 143.5 35.074 142.233 37.7534 139.554C40.5396 136.767 42.4245 131.695 43.4945 124.473L43.495 124.47L58.2945 19.6733C58.2946 19.6728 58.2946 19.6723 58.2947 19.6718C58.8312 16.0498 58.9861 12.99 58.7476 10.5023C58.5101 8.02596 57.8786 6.07248 56.8012 4.70148C55.7854 3.25723 54.1633 2.20982 52.0012 1.52344C49.8348 0.83569 47.0956 0.5 43.7999 0.5H35.9999C29.4242 0.5 24.6555 1.83723 21.8463 4.64644C19.1911 7.30172 17.3742 12.3114 16.3053 19.5267ZM38.3096 21.5019L38.3068 21.516L38.3048 21.5302L24.1068 122.316C23.9132 123.277 23.6497 123.941 23.3467 124.354C23.0567 124.75 22.7466 124.9 22.3999 124.9H22.1999C21.9271 124.9 21.7372 124.849 21.6052 124.775C21.4791 124.705 21.3785 124.6 21.303 124.439C21.1393 124.088 21.0957 123.47 21.2902 122.498L21.293 122.484L21.295 122.47L35.493 21.6842C35.6865 20.7227 35.95 20.0589 36.2531 19.6457C36.543 19.2503 36.8532 19.1 37.1999 19.1H37.3999C37.6726 19.1 37.8626 19.1513 37.9946 19.2246C38.1207 19.2946 38.2213 19.3997 38.2968 19.5614C38.4605 19.9122 38.5041 20.5296 38.3096 21.5019Z" stroke="black"/>
</svg>
