<svg width="62" height="142" viewBox="0 0 62 142" fill="none" xmlns="http://www.w3.org/2000/svg">
<path d="M45.3731 70.6264C48.2227 69.5808 50.386 67.8615 51.8286 65.4573C53.4804 62.7042 54.6918 58.4915 55.4948 52.8707L60.2944 19.6733C60.2944 19.6731 60.2945 19.673 60.2945 19.6728C60.8311 16.0504 60.9861 12.9902 60.7475 10.5023C60.5101 8.02596 59.8785 6.07248 58.8011 4.70148C57.7854 3.25723 56.1632 2.20982 54.0011 1.52344C51.8347 0.835692 49.0955 0.5 45.7998 0.5H21.3998H20.9649L20.9046 0.930676L1.30463 140.931L1.22493 141.5H1.7998H20.3998H20.8348L20.895 141.069L29.4349 79.9H30.3998C30.7388 79.9 30.9889 79.9636 31.1729 80.0639C31.3518 80.1615 31.4948 80.3081 31.6026 80.5236C31.8302 80.9789 31.9016 81.748 31.7066 82.9178L31.7064 82.9178L31.7045 82.9314L25.3045 129.131L25.3038 129.137C24.9025 132.28 24.6998 134.853 24.6998 136.85C24.6998 138.823 24.8959 140.31 25.3526 141.224L25.4908 141.5H25.7998H44.9998H45.7213L45.468 140.824C44.3131 137.745 44.1654 133.381 45.0933 127.68L45.0935 127.68L45.0951 127.669L50.495 88.6691C51.2958 82.9304 51.2471 78.6322 50.2755 75.8455C49.5453 73.423 47.886 71.6885 45.3731 70.6264ZM40.3095 21.502L40.3066 21.5163L40.3046 21.5308L35.1067 58.7161C34.9131 59.6775 34.6496 60.3411 34.3466 60.7543C34.0567 61.1497 33.7465 61.3 33.3998 61.3H31.9741L37.8352 19.1H39.5998C39.8313 19.1 39.9832 19.148 40.0848 19.2115C40.1824 19.2725 40.2692 19.3697 40.3356 19.5357C40.4796 19.8957 40.5049 20.5251 40.3095 21.502Z" stroke="black"/>
</svg>
