<svg width="540" height="348" viewBox="0 0 540 348" fill="none" xmlns="http://www.w3.org/2000/svg">
<path fill-rule="evenodd" clip-rule="evenodd" d="M540 0H1V348H540V0ZM228 106H165L236 173L165 241.5H228L268.5 204.5L309.5 241.5H375.5L302 173L375.5 106H309.5L268.5 142.5L228 106Z" fill="#ABE9F9"/>
<path fill-rule="evenodd" clip-rule="evenodd" d="M0.5 0H163L269.5 96.5L374.5 0H538.5L353 174L537.5 347H374.5L268 250.5L165 347H0L184 174L0.5 0ZM165 106H228L268.5 142.5L309.5 106H375.5L302 173L375.5 241.5H309.5L268.5 204.5L228 241.5H165L236 173L165 106Z" fill="#E8F350"/>
</svg>
