<svg width="349" height="144" viewBox="0 0 349 144" fill="none" xmlns="http://www.w3.org/2000/svg">
  <g id="take">
    <path d="M69.7187 141.931L69.639 142.5H70.2139H88.8139H89.2486L89.309 142.069L96.5492 90.444C96.5257 91.283 96.5139 92.0663 96.5139 92.7939C96.5139 92.7959 96.5139 92.798 96.5139 92.8L95.314 141.988L95.3015 142.5H95.8139H114.814H115.312L115.314 142.001L115.514 68.8711L134.694 2.13812L134.878 1.5H134.214H116.414H116.031L115.931 1.86913L103.131 49.0684C102.598 51.0235 102.039 53.1489 101.453 55.4446L108.909 2.06917L108.989 1.5H108.414H89.8139H89.379L89.3187 1.93068L69.7187 141.931Z" stroke="black"/>
    <path d="M20.3998 142.5H20.8346L20.895 142.069L38.0346 19.9H45.5998H46.0356L46.0951 19.4683L48.4951 2.06832L48.5735 1.5H47.9998H13.3998H12.964L12.9045 1.93168L10.5045 19.3317L10.4261 19.9H10.9998H18.4248L1.30465 141.931L1.22476 142.5H1.7998H20.3998Z" stroke="black"/>
    <path d="M49.1659 141.955L49.1164 142.5H49.6639H68.0639H68.5274L68.5624 142.038L79.1624 2.03775L79.2032 1.5H78.6639H53.0639H52.6557L52.574 1.89992L23.974 141.9L23.8514 142.5H24.4639H41.4639H41.8812L41.9558 142.089L45.0812 124.9H50.7164L49.1659 141.955ZM52.609 107.5H48.2625C52.3521 84.9069 55.7248 65.8323 58.3807 50.2769C56.4928 67.7666 54.5689 86.841 52.609 107.5Z" stroke="black"/>
    <path d="M150.694 123.9H138.468L144.729 78.7H153.894H154.325L154.388 78.2731L156.988 60.6731L157.073 60.1H156.494H147.469L153.128 20.1H165.494H165.93L165.989 19.6676L168.389 2.06756L168.466 1.5H167.894H136.494H136.059L135.998 1.93068L116.398 141.931L116.319 142.5H116.894H148.294H148.73L148.789 142.068L151.189 124.468L151.266 123.9H150.694Z" stroke="black"/>
  </g>
  <g id="over">
    <path d="M182.862 19.5267L182.861 19.5301L168.062 124.327C168.062 124.327 168.062 124.328 168.062 124.328C167.525 127.951 167.37 131.027 167.609 133.547C167.847 136.063 168.48 138.064 169.555 139.498C170.574 140.88 172.199 141.876 174.362 142.529C176.526 143.181 179.262 143.5 182.557 143.5H190.357C196.923 143.5 201.631 142.233 204.31 139.554C207.096 136.767 208.981 131.695 210.051 124.473L210.052 124.47L224.851 19.6733C224.851 19.6728 224.851 19.6723 224.851 19.6718C225.388 16.0498 225.543 12.99 225.304 10.5023C225.067 8.02596 224.435 6.07248 223.358 4.70148C222.342 3.25723 220.72 2.20982 218.558 1.52344C216.391 0.83569 213.652 0.5 210.357 0.5H202.557C195.981 0.5 191.212 1.83723 188.403 4.64644C185.748 7.30172 183.931 12.3114 182.862 19.5267ZM204.866 21.5019L204.863 21.516L204.861 21.5302L190.663 122.316C190.47 123.277 190.206 123.941 189.903 124.354C189.613 124.75 189.303 124.9 188.957 124.9H188.757C188.484 124.9 188.294 124.849 188.162 124.775C188.036 124.705 187.935 124.6 187.86 124.439C187.696 124.088 187.652 123.47 187.847 122.498L187.85 122.484L187.852 122.47L202.05 21.6842C202.243 20.7227 202.507 20.0589 202.81 19.6457C203.1 19.2503 203.41 19.1 203.757 19.1H203.957C204.229 19.1 204.419 19.1513 204.551 19.2246C204.677 19.2946 204.778 19.3997 204.853 19.5614C205.017 19.9122 205.061 20.5296 204.866 21.5019Z" stroke="black"/>
    <path d="M247.411 2.04862L247.464 1.5H246.913H228.513H228.05L228.015 1.96225L217.415 141.962L217.374 142.5H217.913H242.913H243.321L243.403 142.1L272.003 2.10008L272.126 1.5H271.513H254.513H254.099L254.022 1.90683L247.422 36.7068L247.421 36.7087C246.027 44.2165 243.427 59.3501 239.62 82.1064C240.874 70.0899 242.337 55.0032 244.011 36.8472C244.011 36.8468 244.011 36.8463 244.011 36.8459L247.411 2.04862Z" stroke="black"/>
    <path d="M288.313 123.9H276.087L282.349 78.7H291.513H291.945L292.008 78.2731L294.608 60.6731L294.692 60.1H294.113H285.089L290.747 20.1H303.113H303.55L303.609 19.6676L306.009 2.06756L306.086 1.5H305.513H274.113H273.678L273.618 1.93068L254.018 141.931L253.938 142.5H254.513H285.913H286.35L286.409 142.068L288.809 124.468L288.886 123.9H288.313Z" stroke="black"/>
    <path d="M332.086 71.6264C334.936 70.5808 337.099 68.8615 338.542 66.4573C340.194 63.7042 341.405 59.4915 342.208 53.8707L347.008 20.6733C347.008 20.6731 347.008 20.673 347.008 20.6728C347.544 17.0504 347.699 13.9902 347.461 11.5023C347.223 9.02596 346.592 7.07248 345.515 5.70148C344.499 4.25723 342.877 3.20982 340.714 2.52344C338.548 1.83569 335.809 1.5 332.513 1.5H308.113H307.678L307.618 1.93068L288.018 141.931L287.938 142.5H288.513H307.113H307.548L307.608 142.069L316.148 80.9H317.113C317.452 80.9 317.702 80.9636 317.886 81.0639C318.065 81.1615 318.208 81.3081 318.316 81.5236C318.544 81.9789 318.615 82.748 318.42 83.9178L318.42 83.9178L318.418 83.9314L312.018 130.131L312.017 130.137C311.616 133.28 311.413 135.853 311.413 137.85C311.413 139.823 311.609 141.31 312.066 142.224L312.204 142.5H312.513H331.713H332.435L332.181 141.824C331.026 138.745 330.879 134.381 331.807 128.68L331.807 128.68L331.808 128.669L337.208 89.6691C338.009 83.9304 337.96 79.6322 336.989 76.8455C336.259 74.423 334.599 72.6885 332.086 71.6264ZM327.023 22.502L327.02 22.5163L327.018 22.5308L321.82 59.7161C321.627 60.6775 321.363 61.3411 321.06 61.7543C320.77 62.1497 320.46 62.3 320.113 62.3H318.687L324.549 20.1H326.313C326.545 20.1 326.697 20.148 326.798 20.2115C326.896 20.2725 326.983 20.3697 327.049 20.5357C327.193 20.8957 327.218 21.5251 327.023 22.502Z" stroke="black"/>
  </g>
</svg>
